<svg data-v-423bf9ae="" xmlns="http://www.w3.org/2000/svg" viewBox="0 0 503.7414352620937 60" class="font"><!----><!----><defs data-v-423bf9ae=""><linearGradient data-v-423bf9ae="" gradientTransform="rotate(25)" id="ff50a46b-b293-45db-83f7-8dbc42f82990" x1="0%" y1="0%" x2="100%" y2="0%"><stop data-v-423bf9ae="" offset="0%" style="stop-color: rgb(33, 105, 15); stop-opacity: 1;"></stop><stop data-v-423bf9ae="" offset="100%" style="stop-color: rgb(136, 200, 72); stop-opacity: 1;"></stop></linearGradient></defs><g data-v-423bf9ae="" id="fd912c7d-7c95-4877-bbca-6b9e30a8d30a" fill="url(#ff50a46b-b293-45db-83f7-8dbc42f82990)" transform="matrix(5.876591554929072,0,0,5.876591554929072,-4.113616329332473,-20.803134357111894)"><path d="M0.70 5.57L0.70 3.72L7.41 3.72L7.41 3.72Q7.41 4.16 7.28 4.50L7.28 4.50L7.28 4.50Q7.15 4.84 6.94 5.08L6.94 5.08L6.94 5.08Q6.73 5.32 6.46 5.45L6.46 5.45L6.46 5.45Q6.19 5.57 5.88 5.57L5.88 5.57L4.76 5.57L4.76 13.52L2.87 13.52L2.87 5.57L0.70 5.57ZM10.22 3.72L10.22 3.72L12.36 3.72L12.36 3.72Q13.38 3.72 14.07 4.14L14.07 4.14L14.07 4.14Q14.76 4.56 15.12 5.21L15.12 5.21L15.12 5.21Q15.48 5.87 15.53 6.66L15.53 6.66L15.53 6.66Q15.58 7.45 15.36 8.19L15.36 8.19L15.36 8.19Q15.13 8.93 14.64 9.53L14.64 9.53L14.64 9.53Q14.14 10.14 13.41 10.42L13.41 10.42L15.86 13.52L13.58 13.52L10.86 10.08L10.86 10.08Q10.56 9.69 10.59 9.21L10.59 9.21L10.59 9.21Q10.63 8.74 10.86 8.39L10.86 8.39L10.86 8.39Q10.93 8.54 11.13 8.62L11.13 8.62L11.13 8.62Q11.33 8.71 11.57 8.75L11.57 8.75L11.57 8.75Q11.82 8.79 12.05 8.79L12.05 8.79L12.05 8.79Q12.29 8.79 12.46 8.76L12.46 8.76L12.46 8.76Q12.84 8.69 13.11 8.43L13.11 8.43L13.11 8.43Q13.38 8.16 13.52 7.81L13.52 7.81L13.52 7.81Q13.65 7.45 13.65 7.05L13.65 7.05L13.65 7.05Q13.65 6.65 13.49 6.31L13.49 6.31L13.49 6.31Q13.33 5.98 12.98 5.76L12.98 5.76L12.98 5.76Q12.64 5.54 12.11 5.54L12.11 5.54L10.53 5.54L10.53 13.52L8.67 13.52L8.67 5.45L8.67 5.45Q8.67 4.68 9.02 4.20L9.02 4.20L9.02 4.20Q9.37 3.72 10.22 3.72ZM22.05 3.54L22.05 3.54L22.05 3.54Q24.12 3.54 25.59 5.04L25.59 5.04L25.59 5.04Q27.08 6.52 27.08 8.68L27.08 8.68L27.08 8.68Q27.08 10.82 25.62 12.28L25.62 12.28L25.62 12.28Q24.15 13.75 22.06 13.75L22.06 13.75L22.06 13.75Q19.87 13.75 18.42 12.24L18.42 12.24L18.42 12.24Q16.98 10.74 16.98 8.64L16.98 8.64L16.98 8.64Q16.98 8.43 17.00 8.18L17.00 8.18L17.00 8.18Q17.02 7.94 17.07 7.67L17.07 7.67L17.07 7.67Q17.11 7.41 17.18 7.16L17.18 7.16L17.18 7.16Q17.25 6.92 17.36 6.71L17.36 6.71L17.36 6.71Q17.58 6.26 17.99 5.98L17.99 5.98L17.99 5.98Q18.40 5.70 18.85 5.60L18.85 5.60L18.85 5.60Q19.31 5.50 19.76 5.58L19.76 5.58L19.76 5.58Q20.22 5.66 20.55 5.89L20.55 5.89L20.55 5.89Q20.89 6.13 21.04 6.55L21.04 6.55L21.04 6.55Q21.18 6.96 21.04 7.52L21.04 7.52L21.04 7.52Q20.78 7.20 20.39 7.11L20.39 7.11L20.39 7.11Q20.01 7.03 19.66 7.20L19.66 7.20L19.66 7.20Q19.31 7.36 19.07 7.78L19.07 7.78L19.07 7.78Q18.83 8.20 18.86 8.89L18.86 8.89L18.86 8.89Q18.91 10.35 20.01 11.23L20.01 11.23L20.01 11.23Q20.90 11.97 22.06 11.97L22.06 11.97L22.06 11.97Q23.37 11.97 24.29 11.02L24.29 11.02L24.29 11.02Q25.21 10.05 25.21 8.67L25.21 8.67L25.21 8.67Q25.21 7.28 24.29 6.31L24.29 6.31L24.29 6.31Q23.34 5.36 22.02 5.36L22.02 5.36L22.02 5.36Q21.41 5.36 20.90 5.54L20.90 5.54L20.90 5.54Q20.65 5.32 20.31 5.19L20.31 5.19L20.31 5.19Q19.96 5.07 19.58 5.05L19.58 5.05L19.58 5.05Q19.19 5.04 18.81 5.14L18.81 5.14L18.81 5.14Q18.42 5.24 18.09 5.45L18.09 5.45L18.09 5.45Q18.68 4.72 19.50 4.23L19.50 4.23L19.50 4.23Q20.69 3.54 22.05 3.54ZM28.20 13.52L28.20 5.21L28.20 5.21Q28.20 4.91 28.29 4.65L28.29 4.65L28.29 4.65Q28.38 4.38 28.56 4.17L28.56 4.17L28.56 4.17Q28.74 3.96 29.02 3.84L29.02 3.84L29.02 3.84Q29.29 3.72 29.65 3.72L29.65 3.72L29.96 3.72L34.19 10.18L34.19 3.72L36.04 3.72L36.04 13.52L34.26 13.52L30.04 7.10L30.04 13.52L28.20 13.52ZM42.48 3.72L42.48 3.72L44.63 3.72L44.63 3.72Q45.77 3.72 46.48 4.24L46.48 4.24L46.48 4.24Q47.19 4.75 47.52 5.51L47.52 5.51L47.52 5.51Q47.85 6.27 47.80 7.16L47.80 7.16L47.80 7.16Q47.75 8.05 47.38 8.81L47.38 8.81L47.38 8.81Q47.00 9.58 46.30 10.09L46.30 10.09L46.30 10.09Q45.60 10.60 44.62 10.60L44.62 10.60L44.62 10.60Q43.88 10.60 43.48 10.35L43.48 10.35L43.48 10.35Q43.08 10.11 42.94 9.77L42.94 9.77L42.94 9.77Q42.80 9.42 42.87 9.04L42.87 9.04L42.87 9.04Q42.94 8.67 43.13 8.39L43.13 8.39L43.13 8.39Q43.20 8.54 43.40 8.62L43.40 8.62L43.40 8.62Q43.60 8.71 43.84 8.75L43.84 8.75L43.84 8.75Q44.09 8.79 44.32 8.79L44.32 8.79L44.32 8.79Q44.56 8.79 44.72 8.76L44.72 8.76L44.72 8.76Q45.09 8.69 45.37 8.43L45.37 8.43L45.37 8.43Q45.64 8.16 45.77 7.81L45.77 7.81L45.77 7.81Q45.91 7.45 45.91 7.05L45.91 7.05L45.91 7.05Q45.91 6.65 45.75 6.31L45.75 6.31L45.75 6.31Q45.58 5.98 45.24 5.76L45.24 5.76L45.24 5.76Q44.90 5.54 44.37 5.54L44.37 5.54L42.78 5.54L42.78 13.52L40.94 13.52L40.94 5.45L40.94 5.45Q40.94 4.68 41.29 4.20L41.29 4.20L41.29 4.20Q41.64 3.72 42.48 3.72ZM53.72 3.54L53.72 3.54L53.72 3.54Q55.79 3.54 57.26 5.04L57.26 5.04L57.26 5.04Q58.74 6.52 58.74 8.68L58.74 8.68L58.74 8.68Q58.74 10.82 57.29 12.28L57.29 12.28L57.29 12.28Q55.82 13.75 53.73 13.75L53.73 13.75L53.73 13.75Q51.53 13.75 50.09 12.24L50.09 12.24L50.09 12.24Q48.65 10.74 48.65 8.64L48.65 8.64L48.65 8.64Q48.65 8.43 48.67 8.18L48.67 8.18L48.67 8.18Q48.69 7.94 48.73 7.67L48.73 7.67L48.73 7.67Q48.78 7.41 48.85 7.16L48.85 7.16L48.85 7.16Q48.92 6.92 49.03 6.71L49.03 6.71L49.03 6.71Q49.25 6.26 49.66 5.98L49.66 5.98L49.66 5.98Q50.06 5.70 50.52 5.60L50.52 5.60L50.52 5.60Q50.97 5.50 51.43 5.58L51.43 5.58L51.43 5.58Q51.88 5.66 52.22 5.89L52.22 5.89L52.22 5.89Q52.56 6.13 52.70 6.55L52.70 6.55L52.70 6.55Q52.85 6.96 52.71 7.52L52.71 7.52L52.71 7.52Q52.44 7.20 52.06 7.11L52.06 7.11L52.06 7.11Q51.67 7.03 51.32 7.20L51.32 7.20L51.32 7.20Q50.97 7.36 50.74 7.78L50.74 7.78L50.74 7.78Q50.50 8.20 50.53 8.89L50.53 8.89L50.53 8.89Q50.58 10.35 51.67 11.23L51.67 11.23L51.67 11.23Q52.57 11.97 53.73 11.97L53.73 11.97L53.73 11.97Q55.03 11.97 55.96 11.02L55.96 11.02L55.96 11.02Q56.88 10.05 56.88 8.67L56.88 8.67L56.88 8.67Q56.88 7.28 55.96 6.31L55.96 6.31L55.96 6.31Q55.01 5.36 53.69 5.36L53.69 5.36L53.69 5.36Q53.07 5.36 52.57 5.54L52.57 5.54L52.57 5.54Q52.32 5.32 51.98 5.19L51.98 5.19L51.98 5.19Q51.63 5.07 51.25 5.05L51.25 5.05L51.25 5.05Q50.86 5.04 50.48 5.14L50.48 5.14L50.48 5.14Q50.09 5.24 49.76 5.45L49.76 5.45L49.76 5.45Q50.34 4.72 51.17 4.23L51.17 4.23L51.17 4.23Q52.36 3.54 53.72 3.54ZM61.88 13.52L59.65 3.75L61.49 3.75L62.90 10.00L64.18 5.45L64.18 5.45Q64.41 4.62 64.88 4.15L64.88 4.15L64.88 4.15Q65.35 3.68 66.19 3.75L66.19 3.75L67.97 10.00L68.99 5.43L68.99 5.43Q69.20 4.52 69.72 4.07L69.72 4.07L69.72 4.07Q70.24 3.63 71.20 3.75L71.20 3.75L68.98 13.52L67.20 13.52L65.41 7.21L63.64 13.52L61.88 13.52ZM73.79 3.72L77.83 3.72L77.83 5.56L74.05 5.56L74.05 7.73L77.83 7.73L77.83 7.73Q77.81 8.05 77.73 8.37L77.73 8.37L77.73 8.37Q77.64 8.69 77.46 8.95L77.46 8.95L77.46 8.95Q77.28 9.20 76.99 9.36L76.99 9.36L76.99 9.36Q76.71 9.52 76.29 9.52L76.29 9.52L74.05 9.52L74.05 11.69L77.83 11.69L77.83 13.52L72.18 13.52L72.18 5.42L72.18 5.42Q72.18 4.61 72.64 4.17L72.64 4.17L72.64 4.17Q73.09 3.72 73.79 3.72L73.79 3.72ZM80.78 3.72L80.78 3.72L82.92 3.72L82.92 3.72Q83.94 3.72 84.63 4.14L84.63 4.14L84.63 4.14Q85.32 4.56 85.68 5.21L85.68 5.21L85.68 5.21Q86.04 5.87 86.09 6.66L86.09 6.66L86.09 6.66Q86.14 7.45 85.92 8.19L85.92 8.19L85.92 8.19Q85.69 8.93 85.20 9.53L85.20 9.53L85.20 9.53Q84.70 10.14 83.97 10.42L83.97 10.42L86.42 13.52L84.14 13.52L81.42 10.08L81.42 10.08Q81.12 9.69 81.15 9.21L81.15 9.21L81.15 9.21Q81.19 8.74 81.42 8.39L81.42 8.39L81.42 8.39Q81.49 8.54 81.69 8.62L81.69 8.62L81.69 8.62Q81.89 8.71 82.13 8.75L82.13 8.75L82.13 8.75Q82.38 8.79 82.61 8.79L82.61 8.79L82.61 8.79Q82.85 8.79 83.02 8.76L83.02 8.76L83.02 8.76Q83.40 8.69 83.67 8.43L83.67 8.43L83.67 8.43Q83.94 8.16 84.08 7.81L84.08 7.81L84.08 7.81Q84.21 7.45 84.21 7.05L84.21 7.05L84.21 7.05Q84.21 6.65 84.05 6.31L84.05 6.31L84.05 6.31Q83.89 5.98 83.55 5.76L83.55 5.76L83.55 5.76Q83.20 5.54 82.67 5.54L82.67 5.54L81.09 5.54L81.09 13.52L79.23 13.52L79.23 5.45L79.23 5.45Q79.23 4.68 79.58 4.20L79.58 4.20L79.58 4.20Q79.93 3.72 80.78 3.72Z"></path></g><!----><!----></svg>